<?xml version="1.0" standalone="no"?>
<!DOCTYPE svg PUBLIC "-//W3C//DTD SVG 20010904//EN"
 "http://www.w3.org/TR/2001/REC-SVG-20010904/DTD/svg10.dtd">
<svg version="1.0" xmlns="http://www.w3.org/2000/svg"
 width="537.000000pt" height="392.000000pt" viewBox="0 0 537.000000 392.000000"
 preserveAspectRatio="xMidYMid meet">

<g transform="translate(0.000000,392.000000) scale(0.100000,-0.100000)"
fill="#000000" stroke="none">
<path d="M3533 3622 c-92 -46 -107 -59 -97 -86 11 -28 34 -24 125 20 50 24 94
43 96 40 3 -3 -99 -57 -226 -120 -201 -101 -234 -121 -255 -153 -18 -29 -40
-114 -90 -353 -37 -173 -72 -319 -78 -325 -7 -7 -8 -4 -4 10 3 11 23 106 45
210 100 474 99 468 147 502 70 49 79 60 65 77 -20 24 -53 19 -99 -14 -72 -52
-84 -84 -161 -451 -38 -184 -73 -342 -76 -351 -13 -33 -55 -38 -288 -36 l-228
3 -76 170 c-61 136 -73 171 -62 177 8 5 64 36 124 69 209 115 479 312 491 358
9 30 -5 38 -80 46 -198 21 -552 90 -752 146 -95 26 -109 28 -128 15 -12 -7
-48 -65 -79 -127 -87 -175 -199 -368 -313 -542 -89 -134 -103 -160 -94 -177 6
-11 14 -20 18 -20 5 0 69 11 144 24 156 28 374 89 498 139 47 19 88 32 92 28
10 -9 138 -289 138 -301 0 -6 -52 -10 -128 -10 -177 0 -200 -12 -328 -169
-316 -387 -424 -650 -411 -1001 6 -165 14 -204 44 -208 35 -5 45 19 32 74 -6
27 -12 110 -12 184 0 175 26 291 107 473 l26 57 119 0 120 0 57 -106 c71 -132
81 -134 141 -19 37 71 63 103 63 78 0 -20 68 -83 83 -77 8 3 34 32 57 65 l41
59 157 0 c104 0 182 -5 232 -16 41 -8 96 -14 122 -12 38 2 50 -1 62 -17 13
-18 25 -20 102 -18 72 2 97 7 137 27 43 23 48 24 53 8 24 -74 58 -113 129
-151 52 -27 60 -27 123 9 56 33 107 93 117 141 4 16 9 29 11 29 59 0 143 -219
165 -430 23 -223 -25 -437 -136 -605 -73 -109 -212 -228 -351 -298 -76 -39
-244 -94 -358 -119 -137 -30 -385 -32 -531 -4 -197 37 -387 118 -526 224 -71
54 -101 62 -107 28 -5 -25 29 -59 123 -122 100 -66 188 -108 330 -155 l110
-38 -597 0 c-528 -1 -598 -3 -612 -17 -9 -8 -16 -19 -16 -23 0 -31 21 -31
1716 -31 l1693 0 7 22 c15 49 24 48 -780 49 l-751 0 115 38 c409 135 635 357
722 707 33 136 31 360 -4 504 -15 58 -36 127 -47 153 -12 27 -19 53 -15 58 3
5 32 9 64 9 78 0 110 13 110 43 0 35 -74 143 -119 174 -22 16 -40 30 -41 33 0
3 19 14 42 25 81 39 130 148 134 295 1 60 10 124 24 175 38 136 24 430 -20
458 -11 6 -36 1 -85 -18 -158 -62 -318 -181 -385 -285 -27 -42 -35 -48 -50
-40 -10 6 -24 10 -30 10 -16 0 -90 -120 -103 -168 -10 -37 -15 -42 -32 -37
-11 3 -49 11 -85 17 -36 7 -66 13 -68 14 -1 1 13 73 32 160 19 88 49 227 66
309 18 83 36 158 41 168 6 9 105 65 222 123 256 128 277 142 277 190 0 44 -29
74 -72 73 -18 0 -75 -21 -125 -47z m-1133 -211 c80 -16 194 -37 254 -47 l110
-17 -38 -33 c-20 -17 -55 -44 -76 -59 l-40 -28 -102 53 c-138 70 -298 160
-298 167 0 3 10 2 23 -1 12 -3 87 -19 167 -35z m-162 -66 c73 -41 169 -93 212
-116 44 -24 80 -46 80 -50 0 -9 -151 -99 -167 -99 -7 0 -58 60 -114 133 -57
72 -116 149 -132 170 -16 20 -25 37 -20 37 4 0 68 -34 141 -75z m-87 -120 c74
-97 135 -180 137 -185 2 -6 -31 -26 -74 -45 -132 -60 -115 -78 -163 163 -39
200 -46 242 -37 242 1 0 63 -79 137 -175z m-166 -87 c20 -109 35 -203 32 -211
-5 -15 -175 -72 -185 -63 -3 4 4 50 16 104 13 53 37 164 54 245 18 81 35 142
39 135 3 -7 23 -102 44 -210z m-186 -65 c-58 -249 -51 -236 -143 -256 -94 -21
-100 -21 -92 -2 3 9 46 80 94 158 49 78 109 178 133 221 23 44 44 75 46 69 2
-6 -15 -92 -38 -190z m2018 -52 c-22 -59 23 -84 63 -33 l21 27 -4 -140 c-3
-107 -9 -153 -24 -195 l-20 -55 -79 3 c-43 2 -82 7 -86 10 -3 4 9 33 28 65 41
69 46 95 21 111 -15 9 -22 6 -43 -18 -14 -15 -26 -27 -28 -25 -1 2 -8 19 -15
37 -10 24 -20 32 -38 32 -35 0 -38 -22 -12 -95 20 -58 21 -68 9 -91 -12 -21
-75 -64 -95 -64 -3 0 -5 12 -5 28 0 15 -9 46 -19 69 l-20 42 25 48 c41 81 140
174 254 237 36 20 68 36 72 36 3 0 1 -13 -5 -29z m-397 -351 c20 -43 22 -58
16 -120 -3 -39 -13 -88 -22 -108 l-16 -37 -29 64 c-37 81 -39 155 -7 212 12
22 25 39 28 39 4 0 17 -22 30 -50z m-202 -124 c35 -18 84 -86 102 -141 10 -31
9 -35 -39 -84 l-50 -51 -69 0 c-97 0 -129 8 -163 42 -33 34 -72 148 -67 199 2
27 9 35 38 45 50 19 205 13 248 -10z m574 8 l71 -16 -6 -57 c-6 -66 -39 -150
-71 -180 -25 -23 -103 -41 -179 -41 -48 0 -54 3 -98 50 -45 47 -47 51 -38 84
14 50 69 129 101 144 27 13 95 29 131 31 10 1 50 -6 89 -15z m-1478 -32 c3 -5
-24 -23 -60 -40 -78 -39 -81 -55 -24 -133 54 -72 184 -204 240 -243 l45 -31
-103 -3 -103 -3 -36 -51 -37 -51 -33 39 c-18 21 -33 42 -33 45 0 14 -33 19
-47 7 -8 -6 -30 -42 -49 -80 -19 -37 -38 -68 -42 -68 -4 0 -25 33 -47 73 -21
39 -43 75 -49 79 -6 4 -59 8 -118 8 -60 0 -108 4 -108 8 0 22 190 277 277 372
37 40 59 55 98 65 55 15 221 20 229 7z m523 -11 c12 -6 23 -31 32 -72 7 -35
21 -80 32 -102 11 -21 19 -42 17 -46 -2 -4 -23 -1 -48 6 -43 12 -48 17 -83 88
-28 57 -42 75 -57 75 -28 0 -36 -26 -21 -64 27 -66 27 -64 -27 -53 -57 12 -82
5 -82 -22 0 -27 15 -33 153 -66 64 -16 117 -32 117 -36 0 -4 -18 -20 -40 -36
-46 -33 -58 -59 -37 -80 17 -18 26 -14 130 60 48 34 56 37 82 27 l28 -11 -35
-37 c-20 -20 -41 -47 -47 -59 -23 -45 -129 -55 -237 -22 -116 36 -198 90 -321
215 -62 62 -113 120 -113 128 0 27 150 85 293 112 77 15 233 12 264 -5z m611
-245 c50 -54 59 -84 38 -125 -15 -28 -15 -34 -1 -67 34 -81 14 -139 -62 -181
l-40 -23 -41 30 c-65 47 -71 71 -46 188 3 19 1 45 -6 62 -7 16 -9 41 -6 55 8
33 80 105 105 105 10 0 37 -20 59 -44z m-236 -103 c3 -16 8 -35 11 -43 7 -17
-71 -82 -127 -105 -42 -18 -96 -20 -96 -3 0 6 11 30 24 53 18 30 42 51 85 74
33 17 63 36 66 41 12 19 33 9 37 -17z m472 -17 c69 -33 97 -53 115 -80 13 -20
21 -39 17 -43 -3 -4 -29 -6 -56 -6 -40 1 -64 9 -118 42 -38 22 -74 41 -81 41
-9 0 -11 6 -6 18 4 9 10 29 13 45 2 15 9 27 14 27 6 0 51 -20 102 -44z"/>
<path d="M3753 2904 c-12 -19 -14 -30 -6 -43 15 -24 45 -19 62 11 13 22 13 29
2 42 -19 23 -38 20 -58 -10z"/>
<path d="M2471 2371 c-15 -28 8 -54 44 -49 36 4 46 35 19 55 -25 18 -52 16
-63 -6z"/>
<path d="M3333 3523 c-34 -17 -46 -35 -37 -57 9 -23 33 -27 63 -12 47 25 57
43 36 66 -21 23 -21 23 -62 3z"/>
<path d="M1520 1145 c-16 -19 4 -81 30 -95 25 -14 53 14 44 44 -17 58 -49 81
-74 51z"/>
<path d="M1587 1013 c-15 -15 -5 -47 33 -103 48 -71 72 -87 94 -64 22 21 21
25 -14 69 -17 21 -40 53 -51 72 -19 31 -46 42 -62 26z"/>
<path d="M676 467 c-10 -7 -16 -22 -14 -33 3 -15 12 -19 48 -19 36 0 45 4 48
19 4 21 -22 46 -48 46 -9 0 -24 -6 -34 -13z"/>
<path d="M854 466 c-15 -12 -17 -18 -8 -33 9 -15 24 -18 80 -18 60 0 69 2 72
19 2 11 -4 26 -14 33 -24 17 -105 17 -130 -1z"/>
<path d="M4602 471 c-8 -4 -12 -19 -10 -32 3 -23 7 -24 72 -24 56 0 71 3 80
18 9 15 7 21 -8 33 -22 15 -112 19 -134 5z"/>
</g>
</svg>
