<?xml version="1.0" encoding="UTF-8"?>
<svg version="1.1" viewBox="0 0 1500 1500" xmlns="http://www.w3.org/2000/svg">
<rect width="1500" height="1500" fill="#575c5f"/>
<g transform="matrix(.66667 0 0 .66667 251.25 104.19)">
<svg width="1500" height="1939" data-background-color="#575c5f" viewBox="0 0 191 247" xmlns="http://www.w3.org/2000/svg" xmlns:xlink="http://www.w3.org/1999/xlink">
<g transform="translate(-.23889 -.1)">
<svg width="191.48" height="247.2" viewBox="0 0 191.47778447500107 247.2">
<svg width="191.48" height="247.2" viewBox="0 0 397.49759999999986 513.1739276669391">
<rect class="rect-qz-0" y="272.22" width="397.5" height="10.019" rx="1%" fill="#dedad7" stroke="transparent" stroke-width="0" data-fill-palette-color="primary" data-palette-color="#dedad7"/>
<g transform="translate(.9888 308.46)">
<svg width="395.52" height="204.71" viewBox="0 0 395.5199999999999 204.70931905109444">
<svg width="395.52" height="204.71" viewBox="0 0 395.5199999999999 204.70931905109444">
<svg width="395.52" height="111.1" viewBox="0 0 395.5199999999999 111.10417582417578">
<g>
<svg width="395.52" height="111.1" data-palette-color="#dedad7" viewBox="3.15 -40.5 145.57999999999998 40.9">
<path class="wordmark-text-0" d="m8.8 0h-5.65v-40.5h8.15q4.05 0 6.7 1.07 2.65 1.08 3.93 3.45 1.27 2.38 1.27 6.23 0 2.35-0.5 4.27-0.5 1.93-1.6 3.25-1.1 1.33-2.9 1.93l5.75 20.3h-5.45l-5.3-19h-4.4v19zm0-36.45v13.4h2.15q2.4 0 3.9-0.6t2.2-2.05 0.7-4.05q0-3.55-1.3-5.13-1.3-1.57-5.15-1.57h-2.5zm27.85 36.85q-3.4 0-5.25-1.33-1.85-1.32-2.58-3.9-0.72-2.57-0.72-6.32v-6.6q0-3.85 0.75-6.4t2.62-3.85q1.88-1.3 5.18-1.3 3.65 0 5.37 1.5 1.73 1.5 2.28 4.32 0.55 2.83 0.55 6.78v2.35h-11.4v5.8q0 1.75 0.32 2.85 0.33 1.1 1.05 1.62 0.73 0.53 1.88 0.53 1.2 0 1.82-0.58 0.63-0.57 0.85-1.65 0.23-1.07 0.23-2.52v-1.75h5.2v1.1q0 4.35-1.85 6.85t-6.3 2.5zm-3.2-19.2v1.55h6.15v-2.6q0-1.8-0.2-3.03-0.2-1.22-0.83-1.85-0.62-0.62-1.97-0.62-1.3 0-1.98 0.6-0.67 0.6-0.92 2.02-0.25 1.43-0.25 3.93zm22.95 19.2q-3.55 0-5.7-2.23-2.15-2.22-2.45-5.87l4.45-1.35q0.4 2.75 1.35 4.12 0.95 1.38 2.8 1.38 1.45 0 2.2-0.83 0.75-0.82 0.75-2.22 0-1.25-0.55-2.25t-1.8-2.05l-4.95-4.25q-1.5-1.3-2.53-2.9-1.02-1.6-1.02-4.15 0-2.3 0.92-3.88 0.93-1.57 2.6-2.4 1.68-0.82 3.93-0.82 3.45 0 5.27 2.22 1.83 2.23 2.08 5.38l-3.6 1.35q-0.2-1.5-0.6-2.63-0.4-1.12-1.1-1.75-0.7-0.62-1.85-0.62-1.3 0-2.08 0.87-0.77 0.88-0.77 2.08 0 0.75 0.32 1.47 0.33 0.73 1.13 1.43l5.1 4.7q1.05 0.95 1.97 2.05 0.93 1.1 1.53 2.5t0.6 3.25q0 2.45-1 4.1t-2.8 2.47q-1.8 0.83-4.2 0.83zm19.94 0q-3.2 0-5.05-1.3t-2.62-3.7q-0.78-2.4-0.78-5.65v-8.4q0-3.25 0.78-5.65 0.77-2.4 2.62-3.7t5.05-1.3 5.03 1.3q1.82 1.3 2.6 3.7 0.77 2.4 0.77 5.65v8.4q0 3.25-0.77 5.65-0.78 2.4-2.6 3.7-1.83 1.3-5.03 1.3zm0-3.95q1.55 0 2.18-0.9 0.62-0.9 0.75-2.38 0.12-1.47 0.12-3.07v-9.05q0-1.65-0.12-3.1-0.13-1.45-0.75-2.38-0.63-0.92-2.18-0.92t-2.2 0.92q-0.65 0.93-0.77 2.38-0.13 1.45-0.13 3.1v9.05q0 1.6 0.13 3.07 0.12 1.48 0.77 2.38t2.2 0.9zm18.8 3.55h-5.35v-28.9h5.35v4.1q1.6-2.65 3.2-3.55t3.2-0.9q0.2 0 0.38 0 0.17 0 0.47 0.05v5.9q-0.6-0.25-1.37-0.43-0.78-0.17-1.58-0.17-1.25 0-2.27 0.57-1.03 0.58-2.03 2.23v21.1zm18.25 0.4q-2.25 0-3.63-0.85-1.37-0.85-2-2.4-0.62-1.55-0.62-3.65v-18.85h-3.05v-3.55h3.05v-8.45h5.35v8.45h4.65v3.55h-4.65v18.5q0 1.7 0.55 2.43 0.55 0.72 2.1 0.72 0.4 0 0.92-0.05 0.53-0.05 1.03-0.1v3.95q-1 0.15-1.85 0.23-0.85 0.07-1.85 0.07zm13.55-0.4h-5.35v-40.5h5.35v40.5zm13.59 0.4q-3.4 0-5.25-1.33-1.85-1.32-2.57-3.9-0.73-2.57-0.73-6.32v-6.6q0-3.85 0.75-6.4t2.63-3.85q1.87-1.3 5.17-1.3 3.65 0 5.38 1.5 1.72 1.5 2.27 4.32 0.55 2.83 0.55 6.78v2.35h-11.4v5.8q0 1.75 0.33 2.85 0.32 1.1 1.05 1.62 0.72 0.53 1.87 0.53 1.2 0 1.83-0.58 0.62-0.57 0.85-1.65 0.22-1.07 0.22-2.52v-1.75h5.2v1.1q0 4.35-1.85 6.85t-6.3 2.5zm-3.2-19.2v1.55h6.15v-2.6q0-1.8-0.2-3.03-0.2-1.22-0.82-1.85-0.63-0.62-1.98-0.62-1.3 0-1.97 0.6-0.68 0.6-0.93 2.02-0.25 1.43-0.25 3.93z" fill="#dedad7" data-fill-palette-color="primary"/>
</svg>
</g>
</svg>
<g transform="translate(0 137.33)">
<svg width="395.52" height="67.376" viewBox="0 0 395.5199999999999 67.37611381505052">
<g>
<svg width="395.52" height="67.376" data-palette-color="#dedad7" viewBox="4.15 -35.5 267.1 45.5">
<path class="slogan-text-1" d="m23.7 0v-15.9h-15.55v15.9h-4v-34.9h4v15.5h15.55v-15.5h4v34.9h-4zm20.75 0.6q-2.25 0-4.2-0.75t-3.35-2.4-2.2-4.2-0.8-6.15 0.8-6.15 2.2-4.2 3.35-2.4 4.2-0.75 4.13 0.75q1.87 0.75 3.17 2.4t2.03 4.2q0.72 2.55 0.72 6.15v0.95h-16.55v1.65q0 3.8 1.73 5.67 1.72 1.88 4.77 1.88 2.6 0 4.25-1.13 1.65-1.12 2.6-3.37l2.6 1.9q-1.2 2.65-3.52 4.3-2.33 1.65-5.93 1.65zm0-23.8q-3.1 0-4.8 1.95t-1.7 5.75v0.65h12.5v-0.65q0-7.7-6-7.7zm34.95 23.2h-2.7q-3.7 0-3.7-3.7v-0.5h-0.5q-0.65 2.35-2.37 3.57-1.73 1.23-4.13 1.23-3.75 0-5.6-1.9t-1.85-5.6q0-3.6 2.38-5.7 2.37-2.1 7.42-2.1h4.65v-2.85q0-2.85-1.27-4.2-1.28-1.35-4.03-1.35-2.25 0-3.62 0.97-1.38 0.98-2.38 2.83l-2.25-2.1q1-2.1 3.2-3.53 2.2-1.42 5.2-1.42 4.4 0 6.68 2.12 2.27 2.13 2.27 6.28v14.6h2.6v3.35zm-12.45-2.7q1.3 0 2.43-0.45 1.12-0.45 1.92-1.18 0.8-0.72 1.25-1.65 0.45-0.92 0.45-1.92v-3.9h-4.75q-3 0-4.37 1-1.38 1-1.38 2.9v1.4q0 1.95 1.2 2.87 1.2 0.93 3.25 0.93zm26.65 2.7h-4.5l-8.1-25.8h3.8l3.95 13 2.4 9.45h0.5l2.4-9.45 3.95-13h3.7l-8.1 25.8zm21.15 0.6q-2.25 0-4.2-0.75t-3.35-2.4-2.2-4.2-0.8-6.15 0.8-6.15 2.2-4.2 3.35-2.4 4.2-0.75 4.13 0.75q1.87 0.75 3.17 2.4t2.03 4.2q0.72 2.55 0.72 6.15v0.95h-16.55v1.65q0 3.8 1.73 5.67 1.72 1.88 4.77 1.88 2.6 0 4.25-1.13 1.65-1.12 2.6-3.37l2.6 1.9q-1.2 2.65-3.52 4.3-2.33 1.65-5.93 1.65zm0-23.8q-3.1 0-4.8 1.95t-1.7 5.75v0.65h12.5v-0.65q0-7.7-6-7.7zm19.75 23.2h-3.8v-25.8h3.8v4.2h0.5q0.75-2.4 2.33-3.6 1.57-1.2 4.27-1.2 3.45 0 5.43 2.35 1.97 2.35 1.97 7.25v16.8h-3.8v-16.55q0-3.1-1.27-4.75-1.28-1.65-3.93-1.65-2.3 0-3.9 1.4t-1.6 3.95v17.6zm41.7 0.6q-3.75 0-6.55-1.58-2.8-1.57-4.65-4.37l2.9-2.4q1.6 2.35 3.6 3.62 2 1.28 4.7 1.28 7.1 0 7.1-6.65 0-2.7-1.3-4.1t-4.5-2.2l-2.6-0.65q-4.6-1.15-6.77-3.38-2.18-2.22-2.18-6.27 0-4.65 2.9-7.03 2.9-2.37 7.7-2.37 3.65 0 6.13 1.35 2.47 1.35 4.32 4.25l-2.95 2.1q-1.35-2.1-3.08-3.18-1.72-1.07-4.57-1.07-3.2 0-4.87 1.4-1.68 1.4-1.68 4.55 0 2.55 1.37 3.85 1.38 1.3 4.43 2.05l2.6 0.65q2.45 0.6 4.15 1.42 1.7 0.83 2.78 2.03 1.07 1.2 1.55 2.82 0.47 1.63 0.47 3.78 0 4.95-2.92 7.52-2.93 2.58-8.08 2.58zm27-0.6h-4.65q-2.05 0-2.97-0.93-0.93-0.92-0.93-2.97v-18.55h-3.8v-3.35h2.25q1.15 0 1.53-0.58 0.37-0.57 0.37-1.72v-4.8h3.45v7.1h5v3.35h-5v19.1h4.75v3.35zm25.05 0h-2.7q-3.7 0-3.7-3.7v-0.5h-0.5q-0.65 2.35-2.37 3.57-1.73 1.23-4.13 1.23-3.75 0-5.6-1.9t-1.85-5.6q0-3.6 2.38-5.7 2.37-2.1 7.42-2.1h4.65v-2.85q0-2.85-1.27-4.2-1.28-1.35-4.03-1.35-2.25 0-3.62 0.97-1.38 0.98-2.38 2.83l-2.25-2.1q1-2.1 3.2-3.53 2.2-1.42 5.2-1.42 4.4 0 6.68 2.12 2.27 2.13 2.27 6.28v14.6h2.6v3.35zm-12.45-2.7q1.3 0 2.43-0.45 1.12-0.45 1.92-1.18 0.8-0.72 1.25-1.65 0.45-0.92 0.45-1.92v-3.9h-4.75q-3 0-4.37 1-1.38 1-1.38 2.9v1.4q0 1.95 1.2 2.87 1.2 0.93 3.25 0.93zm27.35-10.1 3.95-13h3.7l-10.2 32.4q-0.3 1-0.65 1.68-0.35 0.67-0.87 1.05-0.53 0.37-1.25 0.52-0.73 0.15-1.83 0.15h-2.8v-3.35h3.95l1.5-5.25-8.55-27.2h3.8l3.95 13 2.4 9.45h0.5l2.4-9.45zm19.5 13.4q-3.2 0-5.47-1.3-2.28-1.3-3.88-3.6l2.65-2.2q1.35 1.9 2.93 2.9 1.57 1 3.77 1 2.25 0 3.58-1.13 1.32-1.12 1.32-3.22 0-1.7-0.85-2.75t-3.15-1.45l-1.95-0.35q-3.75-0.7-5.57-2.35-1.83-1.65-1.83-5 0-1.95 0.6-3.38 0.6-1.42 1.7-2.35 1.1-0.92 2.63-1.35 1.52-0.42 3.32-0.42 2.9 0 4.88 1.02 1.97 1.03 3.42 2.98l-2.45 2.25q-0.85-1.2-2.25-2.13-1.4-0.92-3.6-0.92-4.55 0-4.55 4.15 0 1.9 0.98 2.77 0.97 0.88 3.17 1.28l1.95 0.35q3.95 0.7 5.6 2.45t1.65 4.75q0 3.75-2.17 5.87-2.18 2.13-6.43 2.13z" fill="#dedad7" data-fill-palette-color="secondary"/>
</svg>
</g>
</svg>
</g>
</svg>
</svg>
</g>
<g transform="translate(76.533)">
<svg width="244.43" height="245.99" viewBox="0 0 244.43135999999993 245.98706055677485">
<svg class="icon-icon-0" width="244.43" height="245.99" enable-background="new 0 0 48 48" data-fill-palette-color="accent" version="1.1" viewBox="0.3 0 47.39833 47.7" xml:space="preserve" xmlns="http://www.w3.org/2000/svg" xmlns:xlink="http://www.w3.org/1999/xlink"><g fill="#b4bfc5" data-fill-palette-color="accent"><path d="M23.3 19.9c-8.1 0-15.7-1.4-21.5-4L1 15.6l0.3-0.8C4 5.9 12.8 0 23.3 0c10.4 0 19.5 6.1 22.1 14.7l0.2 0.8-0.8 0.4C39 18.5 31.4 19.9 23.3 19.9zM3.4 14.4c5.4 2.2 12.5 3.5 19.9 3.5 7.3 0 14.5-1.3 19.9-3.5C40.5 7.1 32.5 2 23.3 2 14.2 2 6.2 7.1 3.4 14.4z" data-fill-palette-color="accent"/><path d="m31.9 18.4c-1-9.3-4.7-16.4-8.6-16.4s-7.6 7.1-8.6 16.4l-2-0.2c1.2-10.9 5.5-18.2 10.6-18.2s9.4 7.3 10.6 18.2l-2 0.2z" data-fill-palette-color="accent"/><rect x="22.3" y="18.9" width="2" height="28.1" data-fill-palette-color="accent"/><polygon points="1.7 47.7 0.3 46.3 6.2 39.9 37.3 39.9 42.9 46.3 41.3 47.7 36.3 41.9 7 41.9" data-fill-palette-color="accent"/><rect transform="matrix(.7071 .7071 -.7071 .7071 37.587 -19.142)" x="40.9" y="28.6" width="2" height="14.4" data-fill-palette-color="accent"/></g></svg>
</svg>
</g>
</svg>
</svg>
<rect width="191.48" height="247.2" fill="none" visibility="hidden"/>
</g>
</svg>
</g>
</svg>
